<?xml version="1.0" encoding="utf-8"?>
<!-- Generator: Adobe Illustrator 21.1.0, SVG Export Plug-In . SVG Version: 6.00 Build 0)  -->
<svg version="1.1" id="Layer_1" xmlns="http://www.w3.org/2000/svg" xmlns:xlink="http://www.w3.org/1999/xlink" x="0px" y="0px"
	 viewBox="0 0 650 500" style="enable-background:new 0 0 650 500;" xml:space="preserve">
<style type="text/css">
	.st0{fill:#FFFFFF;}
	.st1{opacity:0.6;fill:#FFFFFF;}
	.st2{opacity:0.5;fill:#FFFFFF;}
	.st3{opacity:0.7;fill:#FFFFFF;}
	.st4{opacity:0.8;fill:#FFFFFF;}
	.st5{opacity:0.9;fill:#FFFFFF;}
</style>
<g>
	<g>
		<path class="st0" d="M139.3,371.4l7.4-0.6l1.4-1.7v-70.8h-9v-6.2l23.9-7.6h6.7v8.6c11.9-7,16.5-8.8,22.6-8.8
			c14.2,0,25,13.4,25,31.1c0,20.6-14.8,34.4-36.8,34.4c-2.6,0-6.7-0.3-10.8-0.6v19.9l1.7,1.7l8.5,0.6l-0.3,6.8h-40.2V371.4z
			 M169.6,341.9c1.7,0.3,2.5,0.3,3.5,0.3c13.3,0,20.4-8.3,20.4-23.7c0-13.2-5.8-20.1-16.5-20.1c-1.8,0-3.6,0.1-7.4,0.6V341.9z"/>
		<path class="st0" d="M246.1,284.7c1,4.6,1.5,8.1,1.7,11l1.4,31.5l18.8-35.6v-3.7l19.5-1.5l2.5,49l16.6-23.1l-3.6-23.7
			c3.5-3.1,5.9-4.1,9.9-4.1c6.3,0,10.6,4,10.6,10.1c0,6.3-3.5,13.8-12.1,25.8c-2.7,3.7-10.7,13.7-23.9,29.7h-15.2l-3-44.4
			l-24.1,44.4h-16.4l1.3-5.8l-2.1-46.7l-12.8-2.1v-5.2l23.3-5.4H246.1z"/>
		<path class="st0" d="M363.6,291.3c-11,1.7-16.6,9.8-16.6,23.9c0,14.2,7.6,23.6,19,23.6c5.4,0,10.3-1.7,20.4-6.6v11.5
			c-12.3,5.5-19.3,7.2-29.3,7.2c-10.7,0-18.2-2.8-24.4-9c-6.2-6.2-9.4-14.3-9.4-23.5c0-20.2,15.2-34,37.5-34c14.8,0,25,6.7,25,16.4
			c0,6.4-4.8,10.7-11.9,10.7c-3.6,0-6.6-0.9-10.3-3.1V291.3z"/>
	</g>
	<rect x="288.9" y="231.4" class="st0" width="63.1" height="16.6"/>
	<g>
		<rect x="352" y="121.9" class="st1" width="61.7" height="13.2"/>
		<rect x="413.7" y="135.1" class="st2" width="11.4" height="19.1"/>
		<rect x="352" y="135.1" class="st3" width="61.7" height="19.1"/>
		<rect x="425.1" y="154.1" class="st1" width="31.2" height="47.1"/>
		<rect x="413.7" y="154.1" class="st3" width="11.4" height="47.1"/>
		<polygon class="st4" points="390.1,201.3 413.7,201.3 413.7,154.1 352,154.1 352,185.7 390.1,185.7 		"/>
		<rect x="456.3" y="201.3" class="st2" width="16.6" height="30.2"/>
		<rect x="425.1" y="201.3" class="st3" width="31.2" height="30.2"/>
		<rect x="413.7" y="201.3" class="st4" width="11.4" height="30.2"/>
		<rect x="390.1" y="201.3" class="st5" width="23.6" height="30.2"/>
		<rect x="352" y="185.7" class="st5" width="38.1" height="15.6"/>
		<rect x="352" y="201.3" class="st0" width="38.1" height="30.2"/>
	</g>
</g>
</svg>
